<svg width="74" height="41" viewBox="0 0 74 41" fill="none" xmlns="http://www.w3.org/2000/svg">
<path d="M4.608 37.18C4.024 37.18 3.492 37.084 3.012 36.892C2.532 36.7 2.12 36.42 1.776 36.052C1.432 35.684 1.164 35.232 0.972 34.696C0.788 34.152 0.696 33.532 0.696 32.836C0.696 32.14 0.8 31.524 1.008 30.988C1.224 30.444 1.512 29.988 1.872 29.62C2.232 29.252 2.652 28.972 3.132 28.78C3.612 28.588 4.124 28.492 4.668 28.492C5.012 28.492 5.32 28.516 5.592 28.564C5.872 28.612 6.112 28.668 6.312 28.732C6.52 28.796 6.688 28.86 6.816 28.924C6.944 28.988 7.032 29.036 7.08 29.068L6.744 30.028C6.672 29.98 6.568 29.928 6.432 29.872C6.296 29.816 6.14 29.76 5.964 29.704C5.796 29.648 5.608 29.604 5.4 29.572C5.2 29.532 4.996 29.512 4.788 29.512C4.348 29.512 3.952 29.588 3.6 29.74C3.248 29.892 2.948 30.112 2.7 30.4C2.452 30.688 2.26 31.04 2.124 31.456C1.996 31.864 1.932 32.324 1.932 32.836C1.932 33.332 1.988 33.784 2.1 34.192C2.22 34.6 2.396 34.952 2.628 35.248C2.86 35.536 3.148 35.76 3.492 35.92C3.844 36.08 4.252 36.16 4.716 36.16C5.252 36.16 5.696 36.104 6.048 35.992C6.4 35.88 6.664 35.78 6.84 35.692L7.14 36.652C7.084 36.692 6.984 36.744 6.84 36.808C6.696 36.864 6.516 36.92 6.3 36.976C6.084 37.032 5.832 37.08 5.544 37.12C5.256 37.16 4.944 37.18 4.608 37.18ZM21.643 32.836C21.643 32.124 21.747 31.496 21.955 30.952C22.171 30.408 22.459 29.956 22.819 29.596C23.187 29.228 23.611 28.952 24.091 28.768C24.579 28.584 25.095 28.492 25.639 28.492C26.175 28.492 26.679 28.584 27.151 28.768C27.631 28.952 28.051 29.228 28.411 29.596C28.771 29.956 29.055 30.408 29.263 30.952C29.479 31.496 29.587 32.124 29.587 32.836C29.587 33.548 29.479 34.176 29.263 34.72C29.055 35.264 28.771 35.72 28.411 36.088C28.051 36.448 27.631 36.72 27.151 36.904C26.679 37.088 26.175 37.18 25.639 37.18C25.095 37.18 24.579 37.088 24.091 36.904C23.611 36.72 23.187 36.448 22.819 36.088C22.459 35.72 22.171 35.264 21.955 34.72C21.747 34.176 21.643 33.548 21.643 32.836ZM22.867 32.836C22.867 33.34 22.931 33.8 23.059 34.216C23.187 34.624 23.367 34.972 23.599 35.26C23.839 35.548 24.127 35.772 24.463 35.932C24.807 36.084 25.191 36.16 25.615 36.16C26.039 36.16 26.419 36.084 26.755 35.932C27.091 35.772 27.375 35.548 27.607 35.26C27.847 34.972 28.031 34.624 28.159 34.216C28.287 33.8 28.351 33.34 28.351 32.836C28.351 32.332 28.287 31.876 28.159 31.468C28.031 31.052 27.847 30.7 27.607 30.412C27.375 30.124 27.091 29.904 26.755 29.752C26.419 29.592 26.039 29.512 25.615 29.512C25.191 29.512 24.807 29.592 24.463 29.752C24.127 29.904 23.839 30.124 23.599 30.412C23.367 30.7 23.187 31.052 23.059 31.468C22.931 31.876 22.867 32.332 22.867 32.836ZM51.8869 32.836C51.8869 33.556 51.7749 34.184 51.5509 34.72C51.3269 35.248 51.0109 35.688 50.6029 36.04C50.1949 36.384 49.7069 36.644 49.1389 36.82C48.5709 36.988 47.9469 37.072 47.2669 37.072C46.9309 37.072 46.5589 37.056 46.1509 37.024C45.7509 37 45.3869 36.948 45.0589 36.868V28.804C45.3869 28.724 45.7509 28.672 46.1509 28.648C46.5589 28.616 46.9309 28.6 47.2669 28.6C47.9469 28.6 48.5709 28.688 49.1389 28.864C49.7069 29.032 50.1949 29.292 50.6029 29.644C51.0109 29.988 51.3269 30.428 51.5509 30.964C51.7749 31.492 51.8869 32.116 51.8869 32.836ZM47.3629 36.052C48.4669 36.052 49.2909 35.772 49.8349 35.212C50.3789 34.644 50.6509 33.852 50.6509 32.836C50.6509 31.82 50.3789 31.032 49.8349 30.472C49.2909 29.904 48.4669 29.62 47.3629 29.62C47.0349 29.62 46.7789 29.624 46.5949 29.632C46.4189 29.64 46.2949 29.648 46.2229 29.656V36.016C46.2949 36.024 46.4189 36.032 46.5949 36.04C46.7789 36.048 47.0349 36.052 47.3629 36.052ZM67.3536 37V28.684H72.4296V29.68H68.5176V32.152H71.9976V33.124H68.5176V36.004H72.7296V37H67.3536Z" fill="white"/>
<path d="M17.513 18.46C17.6596 18.4733 17.8263 18.4867 18.013 18.5C18.213 18.5 18.4463 18.5 18.713 18.5C20.273 18.5 21.4263 18.1067 22.173 17.32C22.933 16.5333 23.313 15.4467 23.313 14.06C23.313 12.6067 22.953 11.5067 22.233 10.76C21.513 10.0133 20.373 9.64 18.813 9.64C18.5996 9.64 18.3796 9.64667 18.153 9.66C17.9263 9.66 17.713 9.67333 17.513 9.7V18.46ZM26.533 14.06C26.533 15.26 26.3463 16.3067 25.973 17.2C25.5996 18.0933 25.0663 18.8333 24.373 19.42C23.693 20.0067 22.8596 20.4467 21.873 20.74C20.8863 21.0333 19.7796 21.18 18.553 21.18C17.993 21.18 17.3396 21.1533 16.593 21.1C15.8463 21.06 15.113 20.9667 14.393 20.82V7.32C15.113 7.18667 15.8596 7.1 16.633 7.06C17.4196 7.00667 18.093 6.98 18.653 6.98C19.8396 6.98 20.913 7.11333 21.873 7.38C22.8463 7.64667 23.6796 8.06667 24.373 8.64C25.0663 9.21333 25.5996 9.94667 25.973 10.84C26.3463 11.7333 26.533 12.8067 26.533 14.06ZM29.1391 21V7.14H38.4991V9.76H32.2591V12.48H37.7991V15.04H32.2591V18.38H38.9591V21H29.1391ZM50.528 18.32V21H41.268V7.14H44.388V18.32H50.528ZM61.7975 18.32V21H52.5375V7.14H55.6575V18.32H61.7975Z" fill="white"/>
</svg>
